<?xml version="1.0" encoding="UTF-8"?><svg id="uuid-f404317d-537a-49bf-91af-e8b6727d7311" xmlns="http://www.w3.org/2000/svg" viewBox="0 0 144 144"><defs><style>.uuid-9219300a-c42f-476f-a416-4371120b67f4{fill:#f27604;}.uuid-04e0fe3e-00d2-447e-97d8-47d51eaddfe0{fill:#f3fbf2;}.uuid-dc36ff2b-fc12-4e22-9805-a71a3a96eb3b{fill:#1da53d;}.uuid-9880c4dc-cb7c-4393-9bbc-a769436bbceb{fill:#f69306;}.uuid-27a86a8c-a3a5-454e-8945-7a111c650c68{fill:#fdfdfd;}</style></defs><path class="uuid-27a86a8c-a3a5-454e-8945-7a111c650c68" d="M77.2,0c-.08.45.23.24.49.27,7.57,1.01,13.46,1.86,20.67,4.64,24.95,9.63,43.86,34.43,45.35,61.39.01.27-.15.56.28.49v10.27c-.43-.08-.27.22-.28.49-.72,15.66-8.53,32.26-19.12,43.6-11.59,12.42-28.83,21.3-45.92,22.57-.27.02-.57-.16-.49.28h-12.23c.08-.44-.22-.26-.49-.28C31.49,140.88,2.17,112.03.28,77.69c-.01-.27.15-.56-.28-.49v-10.41c.43.08.27-.22.28-.49C2.18,31.87,32.41,1.53,67.01.28c.27,0,.56.14.49-.28h9.7ZM101.95,27.14l-.62-.79c-1.07-.88-.52-.42-1.55-.33-13.63.09-27.29-.23-40.9.16-.43.48-1.01.43-1.53.72-.35.2-.48.56-.58.62-.15.09-.41.02-.61.16-.33.25-.45,1.36-.66,1.66-.1.14-.67.44-.85.6-.14.13-.06.34-.18.44s-.48.05-.49.21c0,.18.14.39.14.56-.05,1.8.07,2.96-.14,4.9-.1.87.14,1.72.16,2.53.14,8.44-.17,16.93-.15,25.32,0,1.04,0,3,.13,3.94.16,1.23,1.2.35,1.77.21.17-.04.59.02.62,0,.13-.13-.36-.83.22-1.4l1.32-.99s.1,0,.14,0c.55,0,.37.2.53.27.3.12,1.02.34,1.02-.2v-32.98c.48-.1,1.06-.87,1.51-.96.22-.04.43.13.64.08.33-.08.64-.3,1.05-.36,1.25-.17,2.86-.05,4.18-.05,5.2,0,10.46-.25,15.76-.13,1.06.02,2.28.26,3.22.3.54.03.88-.27,1.28-.29.65-.03,1.99.26,2.8.28,2.37.04,4.74-.04,7.11,0,.01.14,0,.28,0,.42-.49-.02-.39-.09-.42.34-.23,2.87-.25,7.97,0,10.83.03.31.32,2.04.44,2.16.08.08.47-.05.62.15.17.22.11,1.22.23,1.39.06.08.71.19.92.28.52.22,1.09.36,1.45.52.16.07.26.34.43.42.58.27,1.54-.06,2.17-.08,3.04-.07,6.15.18,9.15,0,.27-.02.56.15.49-.28.44,0,.99-.05,1.41,0,.24.64-.35.96-.42,1.34-.21,1.09-.13,3.36,0,4.49.03.29.28.52.28.85,0,.37-.31.62-.29.97s.35.53.4.75c.07.33-.22.59-.23.84,0,.17.24.42.26.81.09,1.49-.06,3.02-.12,4.51-.03.77-.23,2.03-.17,2.67.02.25.32.41.3.85-.02.34-.3.53-.31.98-.01.58.29,1.32.3,1.97.04,1.95-.31,2.94,0,5.06.11.77-.31,1.19-.29,1.54.02.33.34.57.29,1.14-.03.37-.3.64-.3.98s.26.56.27.84c.03.86.05,2.13.03,2.96-.01.49-.32.8-.31,1.27,0,.37.11,1.04.14,1.55.29,4.94.13,9.96.03,14.89-.01.57.21,1.3.13,1.99-.06.53-.33.87-.3,1.4.02.45.29.65.3.97.01.4-.23,1.05-.24,1.53,0,1.38.66,5.56-.13,6.56-.45.57-.33-.55-.77-.42,0,.14.11.27.06.42-.23.69-.95.49-.9,1.12-10.89.73-22.31-.47-33.19.14-.04-.6-.31-.71-.89-.53s-.55,2.07-.7,2.67c-.17.71-.31.85-.43,1.56-.1.59-.3,1.16-.23,1.78.66.14,1.13-.23,1.75-.29h36.15c1.21-.79,2.66-1.2,3.51-2.54.09-.14.04-.38.12-.51.12-.19.79-.46.98-.92.34-.81.14-2.36.39-3.26V45.63c-.2-.32-.08-1.83-.15-1.89-.04-.03-.71-.05-.98-.14-.09-.21-.15-.76-.33-.94-.11-.12-.62-.26-.79-.58-.28-.54-.1-1.25-.15-1.29s-.79.23-1.17,0c-.15-.09-.06-.3-.13-.38-.1-.11-.59-.16-.77-.36-.28-.33-.64-1.24-1.17-1.57-1.22-.76-1.17-1.33-2-2-2.1-1.7-3.67-3.5-5.5-5.39-.68-.7-2.2-1.84-2.67-2.53-.12-.18-.05-.49-.22-.63-.13-.1-1.02-.29-1.27-.35-.13-.12-.36-.38-.42-.42ZM54.42,72.56c-.32.02-.81-.1-1.07.13-.16.14-.14.43-.24.53-.32.33-.87.59-1.22.96-.29.3-1.06,1.68-1.16,1.73-.17.09-.4-.01-.57.03s-.1.34-.45.43c-.64.16-.09-.52-.64-.43.47,1.07-.46.79-.89,1.11-.16.12-.13.53-.44.73-.59.38-.83-.07-.82,1.22-.54.24-1.3,1.48-1.9,1.13-.1-.06-.92-1.89-1.01-2.15-.27-.78-.62-2.31-.65-3.12-.02-.54.24-1.48.21-1.95-.03-.53-.38-1.07-.27-1.97.04-.32.28-.51.28-.7,0-.23-.29-.52-.28-.98.03-1.97.99-3.47,1.49-5.14.12-.39.03-.96.21-1.3.12-.23,1.36-1.04,1.39-1.18.05-.2-.31-.48-.27-.68s.45-.22.52-.45c.1-.32-.14-1.08.16-1.54.05-.08.81-.89,1-1.11.58-.69,1.85-1.87,2.26-2.53.14-.23.09-.52.16-.61.09-.13,1.15-.16,1.35-.83l.02-12.5c.43-.45.29-1.12.57-1.75-.74.43-.56-.35-.93-.41-.18-.03-.69.49-1,.53s-.43-.22-.68-.26c-.35-.06-.68.18-1,.05-.27-.11-.45-.71-.71-.9-.36-.27-1.19-.49-1.69-.8-.37-.23-1.42-1.3-1.58-1.37-.26-.12-.61,0-.85-.14-.22-.13-.42-.72-.98-.99-.36-.17-1.63-.16-2.02-.07-.26.06-.17.82-.3,1-.15.21-.63.07-.87.26s-.15.57-.26.72c-.15.2-.53.07-.71.28-.16.18-.1.66-.35.92-.34.34-.78.03-.84.07-.03.02-.1.53-.22.7-.22.31-.61.27-.78.49-.49.62.22.45-.96,1.01-.3.14-.46.5-1,.34.58,1.22-.78,1.39-1.22,1.87-.42.45-.35.43-.88.88-.21.18-.25.7-.63.91-.31.18-.75.11-.78.13-.25.23.19,1.26.24,1.5.03.15-.14.39-.1.46.02.02.38.07.55.23.81.72.49,1.82.57,1.89.04.04.47-.07.7.07.08.05.73,1.1.82,1.29.13.25.49,1.04.56,1.28.05.17,0,.58.03.6.13.13.68-.39.97.65.2.74.12,1.55-.29,2.21-.18.29-.67.54-.69.61-.07.31.16.62.12.92-.01.1-.56,1.84-.6,1.93-.15.28-.47.21-.59.32s-.15.56-.36.76c-.17.16-.55.13-.65.42-.11.34.19.89.12,1.37-.02.13-.53,1.15-.58,1.18-.18.12-.97-.03-1.31.03-.36.07-.73.44-1.31.52s-1.18-.04-1.73.1c-.7.17-.97.86-2.32.93-.83.04-1.52-.58-1.62.76-.35,4.77.28,9.96,0,14.78,0,.81,1.18.23,1.9.35.27.05,1.14.23,1.39.3s.38.46.62.52c.29.08.57-.15.92-.1.64.1,2.42.73,3.14.95.36.11.81-.13.88.66.02.21-.31.36-.24.65.04.16.34.34.44.56.14.33.14.81.33,1.08.13.18.47.24.56.43.13.28,0,.63.1.82.04.06.29.1.42.34.27.51.31,1.65.56,2.25.35.82.93,1.1.92,2.29-.02,1.59-.93,1.04-1.1,1.19-.04.03.04.57,0,.77-.03.11-.41,1.12-.45,1.17-.07.07-.35.06-.53.24-.27.26-.36.95-.45,1.04-.07.06-.3,0-.35.05-.06.06-.03.39-.17.61-.37.6-1.18.92-1.23,1.56-.01.18.11.37.09.54-.02.29-.27,1.15-.12,1.32.04.05.44.03.65.2.16.13.32.58.51.75,2.06,1.84,4.02,3.63,6.01,5.6.73.72,1.63,1.96,2.38,2.54,1.89,1.46,3.64-1.17,5.34-1.84.21-.08.6-.02.68-.09.03-.03.07-.39.29-.62.29-.3,1.17-.67,1.63-1.04.42-.35.25-.81,1.19-.49.38.13,1.13.85,1.52,1.04,1.51.73,3.66,1.41,5.26,2.02,1.45.56,1.16.44,1.48,1.89.38,1.7.76,3.46,1.13,5.2.11.53.08,1.49.39,2.01.1.16.39.24.57.27,4.76-.02,9.53.13,14.27-.19l1.84-8.57c.33-.58,1.45-.51,1.99-.66.27-.07,2.18-1.04,2.69-1.28.21-.1.44-.07.37-.4.07-.03.21.03.28,0,.1-.03.33,0,.55-.08,1.07-.34,2.26-1.8,3.42-1.18.15.08.19.3.34.39,1.1.74,2.52,1.73,3.71,2.27.04.02.1-.02.14,0,0,0,.08.09.14.14.03.02.12-.02.14,0,.11.1-.26.16.28.28.05.01.1-.01.14,0,.27.69,1.03,1.01,1.69,1.12.09.01.19,0,.28,0,.03,0,.16.25.35.01,1.49-1.78,3.71-3.37,5.14-5.14.17-.21.33-.32.28-.64.14-.14.28-.28.42-.42.05-.05.09-.09.14-.14s.09-.09.14-.14.09-.09.14-.14.09-.09.14-.14.09-.09.14-.14.09-.09.14-.14.09-.09.14-.14c.09-.09.19-.19.28-.28.05-.05.09-.09.14-.14.09-.1.19-.19.28-.28.05-.05.1-.09.14-.14.14-.15.3-.29.42-.42.04-.05.1-.09.14-.14s.1-.09.14-.14.1-.09.14-.14.1-.09.14-.14.1-.09.14-.14.11-.09.14-.14c.57-.18,1.2-.78.92-1.41-1.15-1.82-2.26-3.66-3.36-5.5-.3-.51-1.15-1.33-1.21-1.89-.03-.22.1-.42.14-.62.01-.09-.02-.21,0-.28.94-.34.96-1.34,1.26-2.04.83-1.96,1.59-3.93,2.17-5.99.31-.24,1.82-.31,2.26-.42,1.67-.39,3.43-1.04,5.11-1.36.46-.09,1.25.14,1.41-.41l.03-14.6-.24-.32c-.57.07-2.62-.91-2.84-.22l-1.71,12.43c-.13.12-1.37-.9-1.54-1.06-.8-.78-1.57-1.47-2.4-2.24-.63-.59-2.85-3.1-3.46-3.17-.89-.09-2.31,1.82-3.01,2.46-1.01.94-1.83,1.69-2.81,2.67-1.85,1.85-1.92,1.41-2.8,4.09-2.03,6.12-5.08,10.35-10.58,13.75-5.78,3.58-12.98,4.41-19.42,2.16-3.14-1.1-5.78-2.9-8.34-4.88-.36-.28-1.94-1.75-.71-1.7.11,0,.02.41.29.29.11-.72,1.27-.79,1.33-.85.05-.05.13-1.18.15-1.4.27-.24.55-.48.84-.7.03-.02.19.05.26-.02s0-.23.02-.26c.17-.22.26-.26.42-.42.49.02.97-.57,1.27-.91.12-.13.11-.32.13-.35.02-.02.13-.1.28-.28.53-.62.9-.92,1.55-1.41.28-.21.81-.29.84-.84.05-.04.09-.1.14-.14.67.22.74-.56,1.06-.7.26-.11.22.58.49.28.05-.05-.22-.65-.14-.84.46-.4.45-.64,1.12-.98.27-.14.37-.32.77-.3.22.16.4.29.63.44.05.03.09.11.14.14.12.08.25.12.28.14.22.16.3.32.42.42.14.73.33.55.7.7.28.52.85.98,1.41,1.27.19.1.24,0,.42.28.03.05-.04.23,0,.28s.21-.02.28,0c.05.14.08.48.17.54.11.08.31,0,.4.02.05.02.11-.02.14,0,.01,0-.05.16.14.28.3.19.33.24.56.42.1.37.68,1.13.98,1.35s.37.13.57.2c.05.11-.06.29.14.49s.59.22.85.21c.04.05.1.09.14.14.04.04.01.26.2.43s1.09.63,1.34.7c.08.02.2-.02.28,0,.14.22,1,.52,1.2.55.93.15,2.18-.19,3.04-.57.15-.07.71-.4.54-.68.03-.02.11.02.14,0,.19-.12.19-.2.28-.28.11-.1.28-.28.42-.42.42.05.62-.13.56-.56.09-.09.18-.19.28-.28.89-.23,1.95-1,2.11-1.97.33-.3.69-.93,1.12-1.12.34-.16.17.22.42-.28.04-.09.12-.11.14-.14l2.29-1.7c.21-.22.42-.83.52-.98.23-.33.38-.47.7-.7,1.22-.9,2.31-1.47,3.29-2.82.18-.25.4-.49.36-.83.35-.34.77-.65,1.12-.98.2-.19.2-.17.42-.42.04-.05.09-.09.14-.14,1.1-.31,1.88-1.05,2.25-2.11.08-.06.15-.17.28-.28.04-.04.24-.02.36-.13.18-.16.16-.38.2-.43.34-.4.66-.64.98-.98.57.03,1.17-.57,1.47-.99.14-.19.17-.49.22-.55.33-.42.59-.64.98-.98.61-.34.89.42,1.55.28.39.36.82.68,1.12,1.12.02.03-.05.2.02.26s.22,0,.27.02c.02.23-.02.47,0,.7.52-.35.35.33.98.14.47.44.83.79,1.27,1.27.2.22.2.21.42.42.05.04.1.12.14.14.1.07.12.38.42.28.03-.56.3-1.23.3-1.77,0-.27-.16-.46-.16-.48,0-.14,0-.28,0-.42.44.08.24-.22.28-.48.19-1.19.73-2.38.28-3.6.01-.09-.01-.19,0-.28.45.08.24-.23.28-.49.29-2.01.42-3.59.57-5.56.01-.14,0-.28,0-.42.44.08.24-.22.28-.48.14-.85.36-1.33.53-2.01.28-1.14-.05-2.27.17-3.42-.09,0-.19,0-.28,0-.05,0-.1,0-.14,0l-1.33-.14c-2.75.67-5.7.99-8.54,1.45-.24.04-.93-.01-.82.38-.09,0-.19,0-.28,0-.02,0-.14-.15-.34-.15-.14,0-1.16.11-1.21.15-.03.02.02.22,0,.28-.09,0-.19,0-.28,0-1.2.01-1.37-.02-2.63.26-.25.06-.55-.14-.47.3-.23.01-.47,0-.7,0-.03,0-.29-.16-.62-.15-.25,0-2.22.38-2.3.46-.08.07-.01.2-.03.25-.03.06-.18.13-.14.28,0,.04.46.68.49.71.26.26.77.48,1.06.7s.45.36.7.56c.17.93.94,1.53,1.83,1.69.24.23.47.47.7.7.1.14.21.6.14.7-.04.06-1.07.49-.98.98-.05.05-.09.09-.14.14-.42-.08-.88.12-1.16.42-.13.14-.12.34-.25.49-.3.34-.82.52-.84,1.21-.33.32-.65.66-.98.98-.7.16-1.39.79-1.9,1.26-.55.5-1.08,1.23-1.6,1.77-.49.51-1.26.84-1.42,1.61-.14.13-.28.28-.42.42-.93-.11-1.08.59-1.55.91-.22.15-.57.16-.67.25-.18.15-.08.69-.31.88-.19.17-.68.12-.81.25-.05.05-.42.98-.63,1.06-.16.06-.47-.18-.53-.12-.02.02.02.38-.07.56-.15.3-.58.3-.74.46-.17.17-.24.68-.52.96-.25.25-.58.27-.79.47-.25.23-1.04,1.31-1.32,1.35-1.05.15-.49-.63-1.06-1.06-.29-.21-.75-.13-1.06-.35-.36-.26-.83-1.13-1.09-1.37-.37-.34-1.29-.8-1.61-1.07-.26-.21-.4-.91-.79-1.17-.19-.13-.51-.11-.62-.23-.15-.15-.11-.57-.2-.65-.07-.06-.39-.02-.61-.16-.32-.19-.57-.72-.81-.95-.1-.1-.39-.08-.53-.24-.21-.25-.07-.71-.14-.78-.14-.15-.95,0-1.15-.05-.55-.12-1.12-.85-1.59-.94-.26-.05-1.13-.06-1.37,0-.1.02-.11.22-.21.26-1.26.52-2.05.82-3.23,1.53-.21.12-.57.1-.7.21-.15.12-.19.62-.35.77-.13.13-.46.11-.51.2-.13.21.12.86-.55,1.07-.63.2-.67-.29-.6.87-.05.04-.09.1-.14.14ZM30.64,98.03c-.12-.07-.38,0-.54-.02.16,1.72,1.04.31.54.02Z"/><path class="uuid-04e0fe3e-00d2-447e-97d8-47d51eaddfe0" d="M102.38,27.56c.25.06,1.14.24,1.27.35.18.14.1.45.22.63.47.7,1.99,1.83,2.67,2.53,1.84,1.89,3.4,3.7,5.5,5.39.83.67.79,1.24,2,2,.53.33.89,1.24,1.17,1.57.18.21.67.25.77.36.07.08-.02.29.13.38.38.22,1.12-.05,1.17,0s-.13.75.15,1.29c.16.31.67.46.79.58.18.18.24.73.33.94.27.1.95.11.98.14.07.07-.05,1.57.15,1.89v65.12c-.25.9-.06,2.46-.39,3.26-.19.46-.86.73-.98.92-.08.13-.04.37-.12.51-.84,1.34-2.3,1.75-3.51,2.55h-36.15c-.62.06-1.09.42-1.75.28-.07-.62.13-1.19.23-1.78.12-.72.26-.85.43-1.56.14-.6.14-2.5.7-2.67s.84-.06.89.53c-.34.02-.61-.12-.82.23-.5.83-.52,3.64-1.01,4.69h36.49c2.16,0,5.18-3.07,5.49-5.2.48-22.11.06-44.31.21-66.46-.08-.86-.53-1.67-.85-2.46-.47-.16-1.83-1.63-2.32-2.11-4.62-4.46-9.13-9.69-13.85-13.93Z"/><path class="uuid-04e0fe3e-00d2-447e-97d8-47d51eaddfe0" d="M30.64,98.03c.49.29-.38,1.7-.54-.02.16.02.42-.05.54.02Z"/><path class="uuid-dc36ff2b-fc12-4e22-9805-a71a3a96eb3b" d="M101.95,27.14c.06.04.29.3.42.42,4.72,4.24,9.23,9.47,13.85,13.93.49.47,1.85,1.94,2.32,2.11.32.78.77,1.6.85,2.46-.15,22.14.27,44.35-.21,66.46-.31,2.13-3.33,5.2-5.49,5.2h-36.49c.48-1.05.51-3.86,1.01-4.69.21-.35.48-.21.82-.23,10.88-.61,22.3.59,33.19-.14.18-.01.42.17.74.12.8-.14,1.56-1.19,1.52-2.01v-62.85c.01-.15-.18-.07-.29-.08-.42-.05-.96,0-1.41,0-3.45-.04-7.54.3-10.9,0-2.94-.26-4.37-2.36-4.57-5.13-.24-3.41.1-7.15,0-10.62,0-.14.01-.28,0-.42-.01-.13.08-.4-.08-.42l-36.07.07c-.81.17-1.73,1.09-1.69,1.97v31.76s-1.26.66-1.26.66c-.05,0-.1,0-.14,0-1.3.22-2.55,1.74-3.52,2.53V31.99c0-2.44,3.61-5.74,6.12-5.69h38.96c.69.05,1.76.43,2.32.84Z"/><path class="uuid-dc36ff2b-fc12-4e22-9805-a71a3a96eb3b" d="M105.89,51.75c.11,1.92-.68,4.04-.7,5.91,0,.14.01.28,0,.42-.32,2.01-.6,4.03-.84,6.05-.01.09.01.19,0,.28-.14,1.22-.56,2.93-.56,4.08,0,.14,0,.28,0,.42-.15.5-.15,1.02-.24,1.53-.04.25.05.52-.33.44-.04-.02-.09-.1-.14-.14.01-.28-.14-.43-.42-.42-.44-.47-.79-.83-1.27-1.27-.42-.39-.36-.54-.98-.84-.03-.27.1-.32-.28-.28-.3-.45-.74-.77-1.12-1.12-.22-.21-.59-.85-.92-.85-.28.09-.39.37-.63.57-.4.34-.66.56-.98.98-.69.26-1.19,1.03-1.69,1.55-.32.34-.64.58-.98.98-.33.02-.55.23-.56.56-.13.11-.2.22-.28.28-.89.74-1.44,1.34-2.25,2.11-.05.05-.1.09-.14.14-.28-.01-.43.14-.42.42-.35.34-.77.65-1.12.98-1.23,1.17-2.64,2.33-3.66,3.66-.32.24-.47.38-.7.7-.27.01-.39.19-.57.35-.78.7-1.71,1.49-2.25,2.32-.02.03-.1.05-.14.14l-.42.28c-.44.2-.79.82-1.12,1.12-.72.65-1.4,1.31-2.11,1.97-.1.09-.19.19-.28.28-.21.19-.38.39-.56.56-.15.14-.31.32-.42.42l-.28.28s-.11-.02-.14,0c-1.65,1.04-2.9,1.11-4.78.7-.08-.02-.2.02-.28,0l-1.55-1.12s-.1-.09-.14-.14c-.16-.19-.35-.52-.57-.63-.17-.08-.32-.04-.41-.07-.35-.82-.93-1.06-1.55-1.55-.23-.18-.27-.23-.56-.42l-.14-.28s-.09.02-.14,0c-.03-.44-.24-.45-.56-.56-.05-.14.11-.34-.28-.28-.18-.29-.23-.18-.42-.28-.15-.49-.98-1.09-1.41-1.27-.36-.67-.3-.38-.7-.7-.12-.1-.2-.26-.42-.42l-.28-.14s-.09-.11-.14-.14c-.26-.77-1.04-.96-1.41-.14-.68.35-.66.59-1.12.98-.52.45-.9.8-1.41,1.27-.05.05-.09.1-.14.14-.18.16-.87.3-.84.84-.65.48-1.01.79-1.55,1.41-.42-.11-.24.25-.28.28-.53.46-.87.73-1.41,1.27-.16.16-.25.2-.42.42-.3-.03-.32-.02-.28.28-.29.22-.57.46-.84.7-.38.34-.82.64-1.2.98-.52.47-.77,1.07-1.47,1.27-2.41-2.71-3.22-4.15-4.64-7.45,2.71-2.74,5.6-5.33,8.44-7.94.35-.32.67-.77.98-1.06.05-.04.09-.1.14-.14,2.78-2.54,5.63-6.1,9.63-3.23,2.82,2.02,5.62,5.27,8.37,7.52.15.13.6.5.76.48,1.84-1.82,3.78-3.54,5.65-5.33.8-.76,1.52-1.64,2.32-2.39.15-.14.28-.29.42-.42,1.6-1.52,3.3-3.09,4.92-4.64.34-.32.65-.67.98-.98.71-.68,1.51-1.39,2.25-2.11.05-.05.09-.09.14-.14.45-.43.49-.29.98-.98.02-.03.44.12.29-.47-.04-.17-.34-.14-.43-.23-.24-.23-.46-.47-.7-.7-.63-.61-1.13-1.13-1.83-1.69-.25-.2-.43-.35-.7-.56-.27-.64-.92-1.15-1.55-1.41-.04-.16.11-.22.14-.28l2.95-.56c.23,0,.47.01.7,0,.94-.05,2.13-.45,3.09-.56.09,0,.19,0,.28,0,.47,0,1.09-.14,1.55-.28.09,0,.19,0,.28,0,3.45-.27,7.22-1.22,10.69-1.69.04,0,.09,0,.14,0Z"/><path class="uuid-04e0fe3e-00d2-447e-97d8-47d51eaddfe0" d="M81.28,105.61c.07.32-.16.3-.37.4-.51.24-2.42,1.21-2.69,1.28-.54.15-1.66.07-1.99.66l-1.84,8.57c-4.75.33-9.51.18-14.27.19-.18-.03-.47-.11-.57-.27-.31-.52-.27-1.47-.39-2.01-.37-1.74-.75-3.49-1.13-5.2-.32-1.45-.03-1.34-1.48-1.89-1.61-.61-3.75-1.29-5.26-2.02-.39-.19-1.14-.9-1.52-1.04-.94-.33-.77.14-1.19.49-.45.37-1.33.74-1.63,1.04-.22.23-.26.59-.29.62-.08.07-.47,0-.68.09-1.7.67-3.45,3.29-5.34,1.84-.75-.58-1.65-1.82-2.38-2.54-1.99-1.96-3.94-3.75-6.01-5.6-.19-.17-.35-.63-.51-.75-.21-.16-.61-.15-.65-.2-.15-.17.1-1.04.12-1.32.01-.17-.1-.36-.09-.54.05-.64.86-.97,1.23-1.56.14-.22.11-.55.17-.61.06-.06.28.01.35-.05.09-.08.18-.78.45-1.04.19-.18.46-.16.53-.24.04-.04.42-1.06.45-1.17.04-.2-.03-.73,0-.77.16-.16,1.08.4,1.1-1.19.01-1.19-.57-1.46-.92-2.29-.25-.6-.29-1.74-.56-2.25-.13-.25-.39-.28-.42-.34-.11-.19.03-.54-.1-.82-.09-.18-.43-.25-.56-.43-.19-.26-.19-.75-.33-1.08-.09-.22-.4-.4-.44-.56-.07-.29.26-.44.24-.65-.06-.8-.52-.56-.88-.66-.73-.22-2.5-.86-3.14-.95-.35-.05-.63.17-.92.1-.24-.06-.37-.45-.62-.52s-1.11-.25-1.39-.3c-.72-.12-1.89.46-1.9-.35.28-4.82-.35-10,0-14.78.1-1.35.79-.72,1.62-.76,1.35-.07,1.62-.76,2.32-.93.55-.14,1.15-.01,1.73-.1s.95-.45,1.31-.52c.34-.06,1.13.09,1.31-.03.06-.04.56-1.06.58-1.18.07-.48-.23-1.04-.12-1.37.09-.28.47-.26.65-.42.21-.2.25-.65.36-.76s.44-.04.59-.32c.05-.09.59-1.83.6-1.93.04-.31-.19-.62-.12-.92.02-.07.51-.32.69-.61.41-.67.49-1.47.29-2.21-.29-1.04-.84-.52-.97-.65-.02-.02.02-.43-.03-.6-.07-.24-.43-1.02-.56-1.28-.09-.18-.74-1.24-.82-1.29-.23-.14-.66-.03-.7-.07-.08-.07.25-1.17-.57-1.89-.17-.15-.54-.2-.55-.23-.04-.06.13-.31.1-.46-.05-.24-.49-1.27-.24-1.5.03-.03.47.04.78-.13.38-.21.43-.74.63-.91.53-.45.46-.43.88-.88.45-.48,1.8-.65,1.22-1.87.54.16.69-.19,1-.34,1.18-.56.47-.39.96-1.01.17-.21.56-.17.78-.49.12-.17.19-.68.22-.7.06-.04.5.27.84-.07.25-.25.19-.73.35-.92.18-.2.56-.07.71-.28.12-.15.03-.54.26-.72s.71-.05.87-.26c.13-.18.04-.94.3-1,.39-.09,1.66-.11,2.02.07.56.27.76.87.98.99.24.14.58.01.85.14.15.07,1.21,1.14,1.58,1.37.5.31,1.32.54,1.69.8.26.19.43.79.71.9.32.13.66-.11,1-.05.24.04.37.3.68.26s.82-.57,1-.53c.37.06.19.84.93.41-.28.63-.14,1.3-.57,1.75l-.02,12.5c-.2.68-1.26.7-1.35.83-.07.09-.02.38-.16.61-.41.66-1.68,1.84-2.26,2.53-.19.22-.95,1.03-1,1.11-.3.46-.07,1.23-.16,1.54-.07.24-.48.26-.52.45s.31.48.27.68c-.03.14-1.27.95-1.39,1.18-.18.35-.09.91-.21,1.3-.5,1.67-1.45,3.17-1.49,5.14,0,.46.29.74.28.98,0,.19-.25.38-.28.7-.1.9.24,1.44.27,1.97.03.47-.24,1.41-.21,1.95.03.81.38,2.33.65,3.12.09.26.91,2.09,1.01,2.15.6.34,1.36-.9,1.9-1.13,0-1.29.23-.84.82-1.22.31-.2.28-.61.44-.73.44-.32,1.36-.04.89-1.11.55-.1,0,.58.64.43.35-.09.28-.39.45-.43s.4.06.57-.03c.09-.05.87-1.42,1.16-1.73.35-.37.9-.63,1.22-.96.1-.1.08-.39.24-.53.26-.22.75-.11,1.07-.13-.32.29-.63.74-.98,1.06-2.84,2.62-5.73,5.2-8.44,7.94,0-.01-.21.05-.28-.1-4.04-9.79-1.27-21.27,6.6-28.23v-13.43c-.81,0-1.41.93-2.26.64l-6.84-4.56-.65-.14-9.88,9.83-.07.34c1.38,2.44,2.99,4.8,4.53,7.15l.08.84c-1.48,2.78-2.62,5.72-3.48,8.75l-8.37,2.04-.43.27-.03,13.82.2.53,8.69,2.11c.74,3.18,2.14,6.11,3.45,9.07-.23,1.3-4.77,7.1-4.63,7.86,3.08,3.46,6.52,6.6,9.74,9.94.22.2.5.16.74.02,2.1-1.28,4.1-2.81,6.24-4.03.26-.15.73-.52,1.01-.48,2.74,1.54,5.63,2.77,8.61,3.78l1.77,8.71c2.43.02,4.87,0,7.31,0,1.32,0,2.54.03,3.86,0,1.1-.03,2.2.04,3.3,0l1.76-8.71c1.83-.48,3.52-1.34,5.28-1.96Z"/><path class="uuid-04e0fe3e-00d2-447e-97d8-47d51eaddfe0" d="M114.19,47.81c.1.01.3-.07.28.08v62.85c.04.82-.71,1.87-1.52,2.01-.32.05-.55-.13-.74-.12-.05-.63.67-.43.9-1.12.05-.15-.06-.28-.06-.42.44-.14.32.99.77.42.78-1,.12-5.17.13-6.56,0-.48.25-1.13.24-1.53,0-.33-.28-.53-.3-.97-.03-.53.25-.87.3-1.4.07-.69-.15-1.42-.13-1.99.1-4.93.26-9.95-.03-14.89-.03-.51-.14-1.18-.14-1.55,0-.47.3-.77.31-1.27.02-.83,0-2.1-.03-2.96,0-.28-.27-.49-.27-.84s.27-.61.3-.98c.04-.57-.28-.81-.29-1.14-.02-.35.4-.77.29-1.54-.31-2.12.04-3.11,0-5.06-.01-.65-.32-1.39-.3-1.97,0-.45.29-.64.31-.98.03-.43-.27-.6-.3-.85-.06-.64.15-1.9.17-2.67.05-1.48.21-3.01.12-4.51-.02-.39-.27-.64-.26-.81,0-.25.3-.5.23-.84-.05-.22-.37-.4-.4-.75s.29-.61.29-.97c0-.33-.25-.56-.28-.85-.13-1.13-.22-3.4,0-4.49.07-.38.66-.7.42-1.34Z"/><path class="uuid-04e0fe3e-00d2-447e-97d8-47d51eaddfe0" d="M58.22,65.67l1.27-.66v-31.76c-.06-.88.86-1.8,1.67-1.97l36.07-.07c.16.02.07.29.08.42-2.37-.04-4.74.05-7.11,0-.81-.01-2.15-.31-2.8-.28-.39.02-.74.31-1.28.29-.95-.04-2.16-.28-3.22-.3-5.3-.12-10.56.14-15.76.13-1.32,0-2.93-.12-4.18.05-.41.06-.72.28-1.05.36-.21.05-.42-.13-.64-.08-.45.09-1.03.85-1.51.96v32.98c0,.54-.72.32-1.02.2-.16-.07.02-.27-.53-.27Z"/><path class="uuid-04e0fe3e-00d2-447e-97d8-47d51eaddfe0" d="M58.08,65.67l-1.32.99c-.58.57-.09,1.27-.22,1.4-.03.03-.45-.03-.62,0-.57.14-1.61,1.02-1.77-.21-.13-.94-.13-2.9-.13-3.94-.03-8.39.28-16.88.15-25.32-.01-.82-.25-1.66-.16-2.53.21-1.94.09-3.1.14-4.9,0-.17-.15-.38-.14-.56,0-.16.36-.11.49-.21s.04-.31.18-.44c.17-.16.75-.46.85-.6.21-.3.33-1.41.66-1.66.19-.15.46-.07.61-.16.1-.06.23-.41.58-.62.51-.3,1.09-.24,1.53-.72,13.61-.39,27.27-.07,40.9-.16,1.03-.09.49-.55,1.55.33l.62.79c-.55-.41-1.63-.79-2.32-.85h-38.96c-2.51-.04-6.12,3.26-6.12,5.7v36.21c.97-.79,2.22-2.31,3.52-2.53Z"/><path class="uuid-04e0fe3e-00d2-447e-97d8-47d51eaddfe0" d="M54.56,72.42c-.07-1.16-.03-.67.6-.87.67-.21.41-.87.55-1.07.05-.08.37-.07.51-.2.16-.15.2-.65.35-.77.14-.11.5-.09.7-.21,1.18-.71,1.97-1,3.23-1.53.1-.04.11-.24.21-.26.24-.06,1.11-.05,1.37,0,.48.09,1.04.82,1.59.94.2.04,1.01-.1,1.15.05.06.07-.08.53.14.78.14.16.43.14.53.24.24.23.5.75.81.95.23.14.55.1.61.16.09.08.04.5.2.65.12.12.43.1.62.23.39.26.53.96.79,1.17.32.26,1.24.72,1.61,1.07.25.23.72,1.11,1.09,1.37.31.22.77.14,1.06.35.58.42.02,1.21,1.06,1.06.28-.04,1.07-1.12,1.32-1.35.22-.2.54-.22.79-.47.28-.28.35-.78.52-.96.16-.16.59-.16.74-.46.09-.18.05-.54.07-.56.06-.07.37.18.53.12.21-.08.57-1.01.63-1.06.13-.13.61-.08.81-.25.23-.2.13-.73.31-.88.1-.08.44-.1.67-.25.47-.32.62-1.02,1.55-.91-.8.76-1.52,1.63-2.32,2.39-1.87,1.78-3.81,3.51-5.65,5.33-.16.03-.6-.35-.76-.48-2.75-2.25-5.55-5.5-8.37-7.52-4-2.87-6.85.69-9.63,3.23Z"/><path class="uuid-04e0fe3e-00d2-447e-97d8-47d51eaddfe0" d="M97.31,32.06c.11,3.47-.24,7.2,0,10.62.2,2.77,1.63,4.87,4.57,5.13,3.35.3,7.44-.04,10.9,0,.08.43-.22.27-.49.28-3,.17-6.11-.07-9.15,0-.63.01-1.59.34-2.17.08-.16-.07-.26-.34-.43-.42-.35-.16-.93-.3-1.45-.52-.21-.09-.86-.2-.92-.28-.11-.17-.06-1.17-.23-1.39-.15-.21-.54-.07-.62-.15-.12-.12-.41-1.85-.44-2.16-.26-2.87-.23-7.96,0-10.83.03-.43-.07-.36.42-.34Z"/><path class="uuid-04e0fe3e-00d2-447e-97d8-47d51eaddfe0" d="M105.75,51.75c-3.47.47-7.24,1.42-10.69,1.69-.11-.39.58-.34.82-.38,2.84-.46,5.79-.77,8.54-1.45l1.33.14Z"/><path class="uuid-04e0fe3e-00d2-447e-97d8-47d51eaddfe0" d="M86.62,64.41c-1.63,1.55-3.32,3.12-4.92,4.64.16-.77.93-1.1,1.42-1.61.52-.54,1.06-1.27,1.6-1.77.52-.47,1.21-1.1,1.9-1.26Z"/><path class="uuid-04e0fe3e-00d2-447e-97d8-47d51eaddfe0" d="M89.02,74.53c.03.34-.18.58-.36.83-.98,1.35-2.07,1.92-3.29,2.82,1.02-1.33,2.43-2.49,3.66-3.66Z"/><path class="uuid-04e0fe3e-00d2-447e-97d8-47d51eaddfe0" d="M105.89,51.75c.09,0,.19,0,.28,0-.22,1.15.11,2.28-.17,3.42-.17.68-.39,1.16-.53,2.01-.04.26.16.56-.28.48.02-1.87.81-3.99.7-5.91Z"/><path class="uuid-04e0fe3e-00d2-447e-97d8-47d51eaddfe0" d="M105.19,58.08c-.15,1.97-.27,3.54-.57,5.56-.04.26.18.57-.28.49.24-2.02.53-4.04.84-6.05Z"/><path class="uuid-04e0fe3e-00d2-447e-97d8-47d51eaddfe0" d="M76.36,86.62c.17.29-.39.62-.54.68-.86.38-2.11.72-3.04.57-.2-.03-1.07-.34-1.2-.55,1.88.41,3.13.34,4.78-.7Z"/><path class="uuid-04e0fe3e-00d2-447e-97d8-47d51eaddfe0" d="M84.66,78.89c-.11.15-.32.76-.52.98l-2.29,1.7c.54-.83,1.47-1.63,2.25-2.32.18-.16.29-.33.57-.35Z"/><path class="uuid-04e0fe3e-00d2-447e-97d8-47d51eaddfe0" d="M89.86,61.31c-.74.72-1.54,1.43-2.25,2.11.02-.68.54-.86.84-1.21.13-.15.11-.35.25-.49.29-.3.74-.5,1.16-.42Z"/><path class="uuid-04e0fe3e-00d2-447e-97d8-47d51eaddfe0" d="M104.34,64.41c.46,1.22-.08,2.41-.28,3.6-.04.26.16.56-.28.48,0-1.15.42-2.86.56-4.08Z"/><path class="uuid-04e0fe3e-00d2-447e-97d8-47d51eaddfe0" d="M90.7,72.98c.81-.77,1.36-1.37,2.25-2.11-.37,1.06-1.15,1.79-2.25,2.11Z"/><path class="uuid-04e0fe3e-00d2-447e-97d8-47d51eaddfe0" d="M78.05,85.08c.7-.66,1.39-1.32,2.11-1.97-.16.97-1.22,1.74-2.11,1.97Z"/><path class="uuid-04e0fe3e-00d2-447e-97d8-47d51eaddfe0" d="M89.16,54.28l-2.95.56s-.04-.17.03-.25c.08-.08,2.05-.45,2.3-.46.33-.01.59.15.62.15Z"/><path class="uuid-04e0fe3e-00d2-447e-97d8-47d51eaddfe0" d="M92.95,53.72c-.96.12-2.16.51-3.09.56-.08-.43.21-.24.47-.3,1.26-.29,1.43-.25,2.63-.26Z"/><path class="uuid-04e0fe3e-00d2-447e-97d8-47d51eaddfe0" d="M90.14,58.78c-.89-.15-1.65-.76-1.83-1.69.7.56,1.2,1.08,1.83,1.69Z"/><path class="uuid-04e0fe3e-00d2-447e-97d8-47d51eaddfe0" d="M96.47,67.5c-.05.06-.07.36-.22.55-.31.42-.91,1.02-1.47.99.49-.52,1-1.29,1.69-1.55Z"/><path class="uuid-04e0fe3e-00d2-447e-97d8-47d51eaddfe0" d="M68.62,85.36c.09.03.24-.01.41.07.23.11.41.44.57.63-.26.01-.66-.02-.85-.21s-.09-.38-.14-.49c-.2-.07-.27.02-.57-.2s-.87-.98-.98-1.35c.62.48,1.2.73,1.55,1.55Z"/><path class="uuid-04e0fe3e-00d2-447e-97d8-47d51eaddfe0" d="M59.48,80.16c-.08.19.19.79.14.84-.27.3-.23-.39-.49-.28-.32.14-.39.92-1.06.7.51-.47.88-.82,1.41-1.27Z"/><path class="uuid-04e0fe3e-00d2-447e-97d8-47d51eaddfe0" d="M99,66.8c-.65.14-.94-.62-1.55-.28.24-.21.35-.48.63-.57.33,0,.7.65.92.85Z"/><path class="uuid-04e0fe3e-00d2-447e-97d8-47d51eaddfe0" d="M103.78,68.91s.16.21.16.48c0,.54-.27,1.21-.3,1.77-.3.1-.32-.21-.42-.28.38.08.28-.19.33-.44.09-.51.09-1.03.24-1.53Z"/><path class="uuid-04e0fe3e-00d2-447e-97d8-47d51eaddfe0" d="M55.55,83.81c-.15.18-.26.26-.28.28-.03.03-.02.22-.13.35-.3.34-.79.93-1.27.91.54-.54.87-.81,1.41-1.27.04-.03-.14-.39.28-.28Z"/><path class="uuid-04e0fe3e-00d2-447e-97d8-47d51eaddfe0" d="M87.61,56.53c-.29-.22-.8-.44-1.06-.7-.03-.03-.48-.66-.49-.71.63.25,1.28.77,1.55,1.41Z"/><path class="uuid-04e0fe3e-00d2-447e-97d8-47d51eaddfe0" d="M92.11,108.56c-.66-.12-1.42-.44-1.69-1.12.63.21,1.15.75,1.69,1.12Z"/><path class="uuid-04e0fe3e-00d2-447e-97d8-47d51eaddfe0" d="M100.12,67.92c.38-.04.25.01.28.28.63.31.56.45.98.84-.64.19-.47-.49-.98-.14-.02-.23.02-.47,0-.7-.05-.02-.2.05-.27-.02s0-.23-.02-.26Z"/><path class="uuid-04e0fe3e-00d2-447e-97d8-47d51eaddfe0" d="M94.78,53.44c-.46.14-1.07.29-1.55.28.01-.06-.03-.26,0-.28.05-.03,1.06-.15,1.21-.15.2,0,.32.15.34.15Z"/><path class="uuid-04e0fe3e-00d2-447e-97d8-47d51eaddfe0" d="M90.84,59.48c.09.09.38.06.43.23.15.6-.27.44-.29.47-.49.69-.54.55-.98.98-.09-.49.94-.92.98-.98.07-.1-.04-.56-.14-.7Z"/><path class="uuid-04e0fe3e-00d2-447e-97d8-47d51eaddfe0" d="M57.94,81.56c-.03.56-.57.64-.84.84-.03-.54.66-.68.84-.84Z"/><path class="uuid-04e0fe3e-00d2-447e-97d8-47d51eaddfe0" d="M63.56,80.72c.43.17,1.25.77,1.41,1.27-.55-.28-1.13-.75-1.41-1.27-.37-.15-.57.03-.7-.7.4.33.34.03.7.7Z"/><path class="uuid-04e0fe3e-00d2-447e-97d8-47d51eaddfe0" d="M69.75,86.2l1.55,1.12c-.25-.06-1.15-.53-1.34-.7s-.17-.39-.2-.43Z"/><path class="uuid-04e0fe3e-00d2-447e-97d8-47d51eaddfe0" d="M65.39,82.27c.39-.06.23.14.28.28.32.11.53.13.56.56-.09-.03-.29.06-.4-.02-.09-.07-.11-.4-.17-.54-.07-.02-.24.04-.28,0s.03-.23,0-.28Z"/><path class="uuid-04e0fe3e-00d2-447e-97d8-47d51eaddfe0" d="M93.8,70.03c-.04.05-.02.27-.2.43-.12.11-.32.09-.36.13.02-.33.23-.54.56-.56Z"/><path class="uuid-04e0fe3e-00d2-447e-97d8-47d51eaddfe0" d="M77.2,85.92c.18-.17.36-.37.56-.56.05.43-.14.62-.56.56Z"/><path class="uuid-04e0fe3e-00d2-447e-97d8-47d51eaddfe0" d="M62.02,79.31c-.23-.15-.41-.28-.63-.44-.4-.03-.5.16-.77.3.37-.82,1.15-.63,1.41.14Z"/><path class="uuid-04e0fe3e-00d2-447e-97d8-47d51eaddfe0" d="M90.56,73.12c-.22.25-.22.23-.42.42-.01-.28.14-.43.42-.42Z"/><path class="uuid-04e0fe3e-00d2-447e-97d8-47d51eaddfe0" d="M103.08,70.73c-.23-.21-.22-.2-.42-.42.28-.01.43.14.42.42Z"/><path class="uuid-04e0fe3e-00d2-447e-97d8-47d51eaddfe0" d="M81.7,81.7c-.25.51-.08.12-.42.28l.42-.28Z"/><path class="uuid-04e0fe3e-00d2-447e-97d8-47d51eaddfe0" d="M53.44,85.78s.05.19-.02.26-.23,0-.26.02c-.03-.3-.02-.32.28-.28Z"/><path class="uuid-04e0fe3e-00d2-447e-97d8-47d51eaddfe0" d="M66.52,83.39c-.19-.12-.13-.27-.14-.28l.14.28Z"/><path class="uuid-04e0fe3e-00d2-447e-97d8-47d51eaddfe0" d="M62.44,79.59s-.16-.06-.28-.14l.28.14Z"/><path class="uuid-04e0fe3e-00d2-447e-97d8-47d51eaddfe0" d="M76.5,86.62l.28-.28c-.09.08-.1.17-.28.28Z"/><path class="uuid-04e0fe3e-00d2-447e-97d8-47d51eaddfe0" d="M101.39,99.56l.14-.14c-.04.05-.1.09-.14.14Z"/><path class="uuid-04e0fe3e-00d2-447e-97d8-47d51eaddfe0" d="M101.11,99.84l.14-.14s-.1.09-.14.14Z"/><path class="uuid-04e0fe3e-00d2-447e-97d8-47d51eaddfe0" d="M100.27,100.69l.14-.14s-.1.09-.14.14Z"/><path class="uuid-9219300a-c42f-476f-a416-4371120b67f4" d="M68.91,96.75c10.89-.94,19.18-8.76,21.73-19.26l7.28-6.94.29-.08,7.19,6.73.5.13,1.9-13.21,2.33.79-.03,14.16c-.09.27-.71.34-.99.42-2.56.73-5.25,1.12-7.82,1.81-.37,1.44-.81,2.83-1.33,4.22-.48,1.28-1.44,2.88-1.79,4.04-.02.07.01.19,0,.28-.52-.05-.48.8-.31,1.09l4.51,7.04c.18.49-.34.65-.55.95-.1.14-.11.32-.13.35-.03.05-.1.09-.14.14l-.14.14s-.1.09-.14.14l-.14.14s-.1.09-.14.14l-.14.14c-.12.13-.28.27-.42.42l-.14.14c-.09.09-.19.19-.28.28l-.14.14c-.09.09-.19.19-.28.28l-.14.14s-.09.09-.14.14l-.14.14s-.09.09-.14.14l-.14.14s-.09.09-.14.14l-.14.14c-.14.14-.28.28-.42.42-1.91,1.93-3.95,3.74-5.77,5.77-.09,0-.2.01-.28,0-.54-.38-1.05-.92-1.69-1.12-.04-.01-.09.01-.14,0,.03-.3.02-.32-.28-.28-.03-.02-.11.02-.14,0l-.14-.14s-.1.02-.14,0c.07-.3-.16-.3-.34-.42-.6-.39-4.08-2.76-4.39-2.78-.39-.03-2.83,1.44-3.28,1.8-.07.03-.21-.03-.28,0-1.77.62-3.45,1.48-5.28,1.96l-1.76,8.71c-1.1.05-2.2-.02-3.3,0-1.32.03-2.54.01-3.86,0l-.14-19.41c.59,0,1.25.04,1.83,0l.14-.14Z"/><path class="uuid-04e0fe3e-00d2-447e-97d8-47d51eaddfe0" d="M98.16,89.58c.35-1.17,1.31-2.77,1.79-4.04.52-1.39.96-2.78,1.33-4.22,2.57-.7,5.25-1.09,7.82-1.81.28-.08.9-.14.99-.42l.03-14.16-2.33-.79-1.9,13.21-.5-.13-7.19-6.73-.29.08-7.28,6.94c-2.55,10.5-10.84,18.32-21.73,19.26-.1,0-.13.14-.14.14-.58.04-1.24,0-1.83,0-6.79-.04-12.88-2.89-17.3-7.88.7-.2.95-.8,1.47-1.27.38-.34.81-.64,1.2-.98-.02.22-.1,1.35-.15,1.4-.06.06-1.21.13-1.33.85-.27.12-.18-.29-.29-.29-1.23-.05.35,1.42.71,1.7,2.56,1.98,5.2,3.79,8.34,4.88,6.44,2.25,13.64,1.43,19.42-2.16s8.55-7.63,10.58-13.75c.89-2.68.96-2.24,2.8-4.09.98-.98,1.8-1.74,2.81-2.67.69-.64,2.12-2.55,3.01-2.46.61.06,2.82,2.58,3.46,3.17.83.77,1.6,1.46,2.4,2.24.17.17,1.4,1.19,1.54,1.06l1.71-12.43c.22-.69,2.27.29,2.84.22l.24.32-.03,14.6c-.16.56-.95.33-1.41.41-1.68.33-3.43.98-5.11,1.36-.44.1-1.94.17-2.26.42-.58,2.05-1.34,4.02-2.17,5.99-.3.7-.32,1.7-1.26,2.04Z"/><path class="uuid-04e0fe3e-00d2-447e-97d8-47d51eaddfe0" d="M98.16,89.86c-.03.2-.16.41-.14.62.07.56.91,1.38,1.21,1.89,1.1,1.84,2.21,3.68,3.36,5.5.28.63-.35,1.23-.92,1.41.03-.03.03-.21.13-.35.21-.3.73-.46.55-.95l-4.51-7.04c-.17-.28-.21-1.14.31-1.09Z"/><path class="uuid-04e0fe3e-00d2-447e-97d8-47d51eaddfe0" d="M92.39,108.56c1.81-2.03,3.85-3.84,5.77-5.77.05.32-.11.43-.28.64-1.43,1.77-3.65,3.36-5.14,5.14-.19.24-.32-.01-.35-.01Z"/><path class="uuid-04e0fe3e-00d2-447e-97d8-47d51eaddfe0" d="M81.56,105.61c.45-.35,2.89-1.83,3.28-1.8.31.03,3.79,2.39,4.39,2.78.18.12.41.12.34.42-1.19-.55-2.61-1.54-3.71-2.27-.15-.1-.19-.31-.34-.39-1.16-.62-2.35.84-3.42,1.18-.22.07-.44.05-.55.08Z"/><path class="uuid-04e0fe3e-00d2-447e-97d8-47d51eaddfe0" d="M90,107.16c.3-.03.31-.02.28.28-.54-.13-.17-.18-.28-.28Z"/><path class="uuid-04e0fe3e-00d2-447e-97d8-47d51eaddfe0" d="M100.83,100.12l.14-.14s-.1.09-.14.14Z"/><path class="uuid-04e0fe3e-00d2-447e-97d8-47d51eaddfe0" d="M99.84,101.11l.14-.14s-.09.09-.14.14Z"/><path class="uuid-04e0fe3e-00d2-447e-97d8-47d51eaddfe0" d="M99.42,101.53l.14-.14s-.09.09-.14.14Z"/><path class="uuid-04e0fe3e-00d2-447e-97d8-47d51eaddfe0" d="M99.14,101.81l.14-.14s-.09.09-.14.14Z"/><path class="uuid-04e0fe3e-00d2-447e-97d8-47d51eaddfe0" d="M98.86,102.09l.14-.14s-.09.09-.14.14Z"/><path class="uuid-04e0fe3e-00d2-447e-97d8-47d51eaddfe0" d="M98.58,102.38l.14-.14s-.09.09-.14.14Z"/><path class="uuid-04e0fe3e-00d2-447e-97d8-47d51eaddfe0" d="M89.86,107.16c-.06-.05-.13-.14-.14-.14l.14.14Z"/><path class="uuid-9880c4dc-cb7c-4393-9bbc-a769436bbceb" d="M67.08,116.3c-2.43,0-4.87.01-7.31,0l-1.77-8.71c-2.98-1.01-5.87-2.24-8.61-3.78-.28-.04-.74.33-1.01.48-2.13,1.22-4.14,2.74-6.24,4.03-.24.14-.52.17-.74-.02-3.22-3.34-6.66-6.48-9.74-9.94-.14-.76,4.4-6.56,4.63-7.86-1.32-2.96-2.71-5.89-3.45-9.07l-8.69-2.11-.2-.53.03-13.82.43-.27,8.37-2.04c.87-3.03,2.01-5.97,3.48-8.75l-.08-.84c-1.55-2.36-3.15-4.71-4.53-7.15l.07-.34,9.88-9.83.65.14,6.84,4.56c.84.29,1.45-.65,2.26-.64v13.43c-7.87,6.96-10.64,18.44-6.6,28.23.06.15.27.09.28.1,1.42,3.31,2.23,4.74,4.64,7.45,4.42,4.99,10.51,7.83,17.3,7.88l.14,19.41Z"/><path class="uuid-9880c4dc-cb7c-4393-9bbc-a769436bbceb" d="M68.77,96.89s.04-.13.14-.14l-.14.14Z"/></svg>